<svg width="51" height="50" viewBox="0 0 51 50" fill="none" xmlns="http://www.w3.org/2000/svg">
<rect opacity="0.75" width="8.71434" height="44.3186" rx="4.35717" transform="matrix(-0.707106 -0.707107 -0.707106 0.707107 38.0908 6.16199)" fill="#64A820"/>
<rect opacity="0.75" width="8.71434" height="44.3186" rx="4.35717" transform="matrix(-0.707106 -0.707107 -0.707106 0.707107 50.5908 18.662)" fill="#64A820"/>
<rect width="8.71434" height="44.3186" rx="4.35717" transform="matrix(0.707107 -0.707107 -0.707106 -0.707107 44.4289 37.5)" fill="#64A820"/>
<rect width="8.71434" height="44.3186" rx="4.35717" transform="matrix(0.707107 -0.707107 -0.707106 -0.707107 31.9289 50)" fill="#64A820"/>
<rect x="19.4289" y="12.5" width="8.71434" height="8.96332" transform="rotate(45 19.4289 12.5)" fill="#E5E5E5"/>
<rect x="31.9289" y="25" width="8.71434" height="8.96332" transform="rotate(45 31.9289 25)" fill="#E5E5E5"/>
<rect x="19.2527" y="25" width="8.96332" height="8.71434" transform="rotate(45 19.2527 25)" fill="#E5E5E5"/>
<rect x="31.7527" y="12.5" width="8.96332" height="8.71434" transform="rotate(45 31.7527 12.5)" fill="#E5E5E5"/>
</svg>
